<svg xmlns="http://www.w3.org/2000/svg" version="1.1" xmlns:xlink="http://www.w3.org/1999/xlink" width="1000" height="1000"><g clip-path="url(#SvgjsClipPath1061)"><rect width="1000" height="1000" fill="#ffffff"></rect><g transform="matrix(2.9940119760479043,0,0,2.9940119760479043,0,8.982035928143716)"><svg xmlns="http://www.w3.org/2000/svg" version="1.1" xmlns:xlink="http://www.w3.org/1999/xlink" width="334" height="328"><svg xmlns="http://www.w3.org/2000/svg" viewBox="0 0 334 328">
  <defs>
    <clipPath id="circleClip">
      <circle cx="167" cy="164" r="164"/>
    </clipPath>
  </defs>
  <g clip-path="url(#circleClip)">
<path d="M 171.01 325.75 L 171.00 328.00 L 132.32 328.00 C138.15,328.00 138.94,327.76 139.55,325.84 C140.28,323.55 141.75,307.23 142.30,295.50 C143.64,266.44 145.22,238.69 146.09,229.00 C146.66,222.68 147.53,209.18 148.02,199.00 C148.51,188.82 149.38,175.32 149.94,169.00 C150.51,162.68 150.97,153.45 150.98,148.50 C150.99,143.55 151.45,134.55 152.01,128.50 C152.57,122.45 153.48,112.55 154.03,106.50 C155.15,94.30 156.54,71.55 157.98,42.00 C158.50,31.27 159.23,17.44 159.60,11.25 L 160.27 0.00 L 182.21 0.00 L 181.55 17.25 C181.18,26.74 180.49,49.35 180.02,67.50 C179.55,85.65 178.88,109.50 178.53,120.50 C178.19,131.50 177.73,147.02 177.52,155.00 C176.34,199.44 175.72,216.64 173.46,266.50 C172.51,287.58 171.03,323.42 171.01,325.75 ZM 103.95 325.25 C104.00,327.99 104.04,328.00 111.05,328.00 L 80.29 328.00 L 79.61 314.25 C78.80,297.93 77.32,280.20 75.98,270.50 C75.45,266.65 74.78,258.33 74.50,252.00 C73.21,222.69 71.78,199.26 70.42,185.50 C69.61,177.25 68.49,163.30 67.94,154.50 C67.39,145.70 66.70,136.93 66.41,135.00 C66.12,133.07 65.68,127.22 65.44,122.00 C65.19,116.78 64.50,107.78 63.92,102.00 C63.33,96.22 62.66,86.55 62.43,80.50 C62.19,74.45 61.31,63.65 60.48,56.50 C59.64,49.35 58.51,35.17 57.96,25.00 C57.42,14.82 56.73,5.04 56.44,3.25 L 55.91 0.00 L 80.70 0.00 L 81.33 15.75 C81.68,24.41 82.12,36.90 82.31,43.50 C82.63,54.55 84.65,77.98 86.97,97.50 C87.50,101.90 88.84,119.00 89.97,135.50 C91.09,152.00 92.49,167.88 93.09,170.79 C93.68,173.70 94.37,182.24 94.63,189.76 C94.88,197.29 95.53,205.40 96.06,207.78 C96.60,210.16 97.47,220.07 98.00,229.80 C98.53,239.54 99.41,253.80 99.96,261.50 C100.51,269.20 101.20,281.12 101.50,288.00 C101.80,294.88 102.46,305.45 102.97,311.50 C103.48,317.55 103.92,323.74 103.95,325.25 ZM 308.26 312.25 L 309.26 328.00 L 249.97 328.00 L 248.12 324.96 C242.46,315.65 232.00,315.11 232.00,324.12 L 232.00 328.00 L 219.08 328.00 L 218.87 311.51 C218.75,302.44 218.88,294.79 219.16,294.51 C220.07,293.59 228.82,292.74 231.19,293.33 C232.59,293.68 233.99,295.15 234.68,296.96 C235.48,299.09 237.12,300.56 240.16,301.89 C242.55,302.93 245.41,304.62 246.52,305.64 C247.62,306.66 251.00,309.59 254.02,312.14 C257.03,314.68 261.08,319.28 263.00,322.34 L 266.50 327.90 L 278.25 327.95 C289.79,328.00 290.00,327.96 289.96,325.75 C289.89,321.43 287.02,293.41 285.49,282.00 C284.64,275.67 283.70,265.33 283.40,259.00 C283.10,252.68 282.19,242.10 281.37,235.50 C280.55,228.90 279.51,218.55 279.06,212.50 C278.60,206.45 277.96,200.38 277.62,199.00 C277.06,196.70 275.50,177.49 273.02,142.50 C270.82,111.56 268.98,92.15 267.61,85.50 C266.82,81.65 265.93,74.22 265.63,69.00 C264.22,44.65 262.94,27.63 262.03,21.36 C261.49,17.59 261.03,11.24 261.02,7.25 L 261.00 0.00 L 280.99 0.00 L 281.57 7.25 C281.89,11.24 282.59,18.77 283.11,24.00 C283.64,29.23 284.49,40.92 285.00,50.00 C285.79,64.11 286.95,78.67 288.42,93.00 C288.61,94.93 289.06,101.22 289.42,107.00 C290.00,116.50 290.84,126.42 292.51,143.50 C292.84,146.80 293.99,158.73 295.08,170.00 C296.17,181.27 297.71,195.90 298.49,202.50 C300.82,222.02 302.86,243.70 303.54,256.00 C303.89,262.33 304.57,268.85 305.07,270.50 C305.56,272.15 306.26,278.67 306.61,285.00 C306.96,291.33 307.70,303.59 308.26,312.25 ZM 65.87 328.00 L 56.01 328.00 L 55.88 321.75 C55.80,318.31 55.14,314.63 54.40,313.57 C53.40,312.13 53.34,311.29 54.18,310.28 C55.02,309.28 54.97,308.31 54.00,306.50 C52.98,304.60 52.96,303.75 53.90,302.62 C54.57,301.82 55.25,298.05 55.43,294.23 C55.63,289.95 56.39,286.34 57.41,284.78 C58.59,282.97 58.89,281.14 58.44,278.33 C57.97,275.39 58.21,274.07 59.40,273.08 C60.28,272.35 61.00,271.19 61.00,270.49 C61.00,269.79 61.87,268.16 62.94,266.86 C64.73,264.67 64.99,264.62 66.54,266.14 C67.92,267.50 68.16,269.54 67.93,278.14 C67.56,292.33 67.62,294.85 68.50,299.74 C68.96,302.28 68.86,304.49 68.26,305.24 C67.71,305.93 66.94,311.34 66.56,317.25 L 65.87 328.00 ZM 125.77 328.00 L 118.10 328.00 L 117.42 319.61 C116.59,309.36 117.64,298.50 119.65,296.49 C121.62,294.53 124.46,294.60 126.53,296.67 C127.96,298.11 128.13,300.03 127.69,310.42 C127.41,317.06 126.86,323.74 126.47,325.25 L 125.77 328.00 Z" fill="rgb(13,26,42)"></path>
<path d="M 265.13 323.55 L 267.45 327.91 L 266.50 327.90 L 263.00 322.34 C261.08,319.28 257.03,314.68 254.02,312.14 C251.00,309.59 247.62,306.66 246.52,305.64 C245.41,304.62 242.55,302.93 240.16,301.89 C237.12,300.56 235.48,299.09 234.68,296.96 C233.99,295.15 232.59,293.68 231.19,293.33 C228.82,292.74 220.07,293.59 219.16,294.51 C218.88,294.79 218.75,302.44 218.87,311.51 L 219.08 328.00 L 217.00 328.00 L 217.00 311.20 C217.00,301.12 217.41,293.99 218.02,293.38 C218.63,292.77 219.22,282.42 219.49,267.43 C219.77,251.30 220.47,239.50 221.46,234.00 C222.45,228.53 223.00,219.39 223.00,208.37 L 223.00 191.23 L 218.43 187.87 C215.92,186.02 211.97,182.93 209.65,181.00 C207.33,179.07 202.30,175.48 198.47,173.00 C194.64,170.53 191.35,168.17 191.17,167.75 C190.98,167.34 190.17,167.00 189.36,167.00 C188.56,167.00 186.24,165.88 184.21,164.50 C182.19,163.12 180.02,162.00 179.38,162.00 C178.03,162.00 177.32,167.29 176.73,183.34 C176.98,174.92 177.23,165.76 177.52,155.00 C177.73,147.02 178.19,131.50 178.53,120.50 C178.88,109.50 179.55,85.65 180.02,67.50 C180.27,58.05 180.57,47.39 180.86,38.01 C180.67,45.03 180.49,52.63 180.35,59.83 L 179.68 93.17 L 182.59 95.55 C184.19,96.86 186.07,97.94 186.77,97.96 C187.47,97.98 189.95,99.72 192.27,101.82 C194.60,103.92 198.30,106.71 200.50,108.01 C202.70,109.31 209.79,114.12 216.25,118.69 C222.72,123.26 228.27,127.00 228.58,127.00 C229.74,127.00 256.88,145.00 265.00,151.15 C266.93,152.60 269.40,154.01 270.50,154.28 C271.60,154.55 272.68,154.82 272.89,154.88 C274.26,155.29 270.44,103.82 268.04,87.90 C269.36,96.19 271.04,114.69 273.02,142.50 C275.50,177.49 277.06,196.70 277.62,199.00 C277.96,200.38 278.60,206.45 279.06,212.50 C279.51,218.55 280.55,228.90 281.37,235.50 C281.59,237.23 281.81,239.24 282.02,241.37 C281.55,237.36 280.96,233.39 280.24,229.27 C279.43,224.67 274.56,218.61 270.72,217.44 C268.71,216.83 255.04,209.01 249.12,205.08 C237.88,197.62 236.01,198.24 234.61,209.88 C234.25,212.84 233.76,215.58 233.52,215.96 C233.29,216.35 233.00,223.60 232.90,232.08 C232.79,240.56 232.34,251.55 231.89,256.50 C231.44,261.45 231.01,270.45 230.93,276.50 C230.75,291.29 231.53,292.66 246.70,304.12 C256.77,311.72 261.52,316.73 265.13,323.55 ZM 150.00 73.91 C151.93,76.04 153.76,77.83 154.08,77.89 C154.92,78.05 157.00,57.87 157.94,40.50 C158.39,32.25 159.09,19.76 159.50,12.75 L 160.24 0.00 L 160.27 0.00 L 159.60 11.25 C159.23,17.44 158.50,31.27 157.98,42.00 C156.54,71.55 155.15,94.30 154.03,106.50 C153.48,112.55 152.57,122.45 152.01,128.50 C151.45,134.55 150.99,143.55 150.98,148.50 C150.98,149.88 150.94,151.58 150.88,153.46 C151.05,147.02 150.85,142.33 150.23,141.47 C149.64,140.63 144.49,136.35 138.51,131.72 C137.95,131.29 134.39,129.09 130.59,126.84 C126.80,124.59 121.00,120.67 117.71,118.12 C101.94,105.91 96.21,102.04 92.55,101.11 C90.36,100.56 88.35,100.31 88.10,100.57 C87.46,101.21 91.01,152.20 92.61,167.34 C91.91,161.16 90.85,148.52 89.97,135.50 C88.84,119.00 87.50,101.90 86.97,97.50 C84.65,77.98 82.63,54.55 82.31,43.50 C82.19,39.18 81.95,32.35 81.71,25.72 C82.09,31.40 82.69,32.12 84.67,34.19 C86.23,35.83 89.86,38.33 92.75,39.74 C95.64,41.16 98.00,42.70 98.00,43.16 C98.00,43.62 98.53,44.00 99.19,44.00 C99.84,44.00 101.30,44.85 102.44,45.90 C103.57,46.94 108.10,49.79 112.50,52.23 C116.90,54.67 122.07,57.60 124.00,58.73 C137.50,66.69 143.65,70.00 144.98,70.02 C145.81,70.03 148.07,71.78 150.00,73.91 ZM 69.79 308.75 L 70.00 328.00 L 65.87 328.00 L 66.56 317.25 C66.94,311.34 67.71,305.93 68.26,305.24 C68.86,304.49 68.96,302.28 68.50,299.74 C67.62,294.85 67.56,292.33 67.93,278.14 C68.16,269.54 67.92,267.50 66.54,266.14 C64.99,264.62 64.73,264.67 62.94,266.86 C61.87,268.16 61.00,269.79 61.00,270.49 C61.00,271.19 60.28,272.35 59.40,273.08 C58.21,274.07 57.97,275.39 58.44,278.33 C58.89,281.14 58.59,282.97 57.41,284.78 C56.39,286.34 55.63,289.95 55.43,294.23 C55.25,298.05 54.57,301.82 53.90,302.62 C52.96,303.75 52.98,304.60 54.00,306.50 C54.97,308.31 55.02,309.28 54.18,310.28 C53.34,311.29 53.40,312.13 54.40,313.57 C55.14,314.63 55.80,318.31 55.88,321.75 L 56.01 328.00 L 0.00 328.00 L 0.00 256.80 L 6.75 257.43 C19.84,258.67 54.56,259.75 59.50,259.07 C63.18,258.57 65.24,258.79 67.29,259.93 L 70.07 261.47 L 69.83 275.49 C69.70,283.19 69.68,298.16 69.79,308.75 ZM 0.00 0.00 L 55.91 0.00 L 55.91 0.00 L 45.25 0.01 L 34.50 0.02 L 38.00 3.32 C39.92,5.13 44.20,8.73 47.50,11.31 C50.80,13.89 54.06,16.00 54.75,16.00 C55.65,16.00 56.00,13.73 56.00,8.00 L 56.00 0.56 L 56.44 3.25 C56.73,5.04 57.42,14.82 57.96,25.00 C58.51,35.17 59.64,49.35 60.48,56.50 C61.31,63.65 62.19,74.45 62.43,80.50 C62.66,86.55 63.33,96.22 63.92,102.00 C64.50,107.78 65.19,116.78 65.44,122.00 C65.63,126.18 65.96,130.75 66.22,133.41 C65.96,130.96 65.63,127.03 65.41,123.59 C65.14,119.24 64.50,114.97 63.99,114.09 C63.22,112.77 63.06,112.89 63.03,114.75 C63.01,115.99 62.57,117.00 62.04,117.00 C60.05,117.00 59.00,112.88 59.00,105.04 C59.00,100.03 58.19,93.83 56.88,88.77 C54.95,81.33 54.27,80.12 49.35,75.31 C44.33,70.41 34.57,63.43 27.50,59.70 C25.85,58.83 22.92,56.71 21.00,55.00 C19.08,53.29 15.48,50.69 13.00,49.22 C8.16,46.35 8.12,46.32 3.25,42.43 L 0.00 39.82 ZM 330.00 194.00 C331.27,195.10 332.69,196.00 333.15,196.00 C333.62,196.00 334.00,151.90 334.00,98.00 L 334.00 328.00 L 333.95 263.50 L 329.22 260.29 C326.63,258.53 320.76,253.92 316.18,250.04 C310.68,245.38 307.01,243.00 305.35,243.00 L 302.82 243.00 L 303.42 254.02 C302.65,241.47 300.70,221.01 298.49,202.50 C297.71,195.90 296.17,181.27 295.08,170.00 C294.82,167.25 294.55,164.46 294.29,161.77 C295.51,172.60 296.26,173.79 298.30,174.72 C301.63,176.25 309.69,180.29 313.12,182.17 C314.80,183.08 318.35,185.67 321.02,187.92 C323.68,190.16 326.27,192.00 326.78,192.00 C327.28,192.00 328.73,192.90 330.00,194.00 ZM 110.43 328.00 C115.77,328.00 115.79,327.89 116.26,324.75 C116.53,322.96 116.64,307.33 116.52,290.00 C116.34,264.14 115.90,255.47 114.08,241.58 C112.86,232.27 112.05,223.91 112.29,222.99 C113.10,219.92 109.94,207.69 106.51,200.60 C103.84,195.09 103.36,193.27 104.27,192.17 C105.25,190.99 105.68,191.12 106.97,192.95 C107.81,194.16 109.65,196.57 111.06,198.32 C116.85,205.51 119.28,212.56 121.57,228.86 C121.83,230.71 122.57,233.18 123.21,234.36 C126.21,239.92 128.83,260.20 128.93,278.75 C128.97,286.87 129.39,292.00 130.00,292.00 C130.63,292.00 131.00,298.67 131.00,310.00 L 131.00 328.00 L 125.77 328.00 L 126.47 325.25 C126.86,323.74 127.41,317.06 127.69,310.42 C128.13,300.03 127.96,298.11 126.53,296.67 C124.46,294.60 121.62,294.53 119.65,296.49 C117.64,298.50 116.59,309.36 117.42,319.61 L 118.10 328.00 L 111.05 328.00 C110.84,328.00 110.63,328.00 110.43,328.00 ZM 232.00 324.12 C232.00,315.11 242.46,315.65 248.12,324.96 L 249.00 326.40 L 248.54 325.70 C244.50,319.54 235.17,316.51 234.85,321.25 C234.60,324.91 234.49,325.44 233.66,326.75 C233.06,327.71 234.85,328.00 241.46,328.00 L 232.00 328.00 ZM 181.86 9.11 L 182.21 0.00 L 182.30 0.00 ZM 265.79 71.43 C265.71,70.39 265.63,69.40 265.58,68.50 C264.23,44.87 262.93,27.60 262.03,21.36 C262.94,27.63 264.22,44.65 265.63,69.00 C265.67,69.77 265.73,70.59 265.79,71.43 ZM 93.32 172.19 C93.77,174.89 94.27,181.10 94.54,187.46 C94.28,181.56 93.79,175.47 93.32,172.19 ZM 94.67 190.93 C94.97,198.20 95.57,205.55 96.06,207.78 C95.56,205.52 94.95,198.11 94.67,190.93 ZM 290.25 118.77 C289.91,114.51 289.64,110.72 289.42,107.00 C289.62,110.25 289.93,114.60 290.25,118.77 ZM 173.97 255.32 C173.80,258.97 173.64,262.70 173.46,266.50 C173.14,273.70 172.74,282.76 172.37,291.63 C172.74,282.82 173.13,273.78 173.46,266.50 C173.64,262.58 173.81,258.86 173.97,255.32 ZM 138.87 327.11 C139.17,326.80 139.38,326.38 139.55,325.84 C139.38,326.39 139.19,326.80 138.87,327.11 ZM 303.76 259.50 C303.91,261.43 304.07,263.28 304.24,264.90 C304.07,263.27 303.90,261.42 303.76,259.50 ZM 103.95 325.25 C103.96,326.04 103.99,326.60 104.16,327.00 C103.98,326.60 103.96,326.04 103.95,325.25 Z" fill="rgb(101,67,40)"></path>
<path d="M 19.00 257.78 C21.48,258.32 30.31,258.81 38.64,258.87 C53.67,259.00 53.79,258.98 54.36,256.69 C55.49,252.20 54.36,109.18 53.06,91.51 L 52.18 79.53 L 48.34 76.26 C46.23,74.47 41.42,70.86 37.66,68.25 C33.90,65.64 27.82,61.38 24.16,58.79 C20.50,56.20 16.38,53.29 15.00,52.33 C13.62,51.37 10.00,48.65 6.94,46.29 C3.88,43.93 1.07,42.00 0.69,42.00 C0.31,42.00 0.00,90.11 0.00,148.92 L 0.00 39.82 L 3.25 42.43 C8.12,46.32 8.16,46.35 13.00,49.22 C15.48,50.69 19.08,53.29 21.00,55.00 C22.92,56.71 25.85,58.83 27.50,59.70 C34.57,63.43 44.33,70.41 49.35,75.31 C54.27,80.12 54.95,81.33 56.88,88.77 C58.19,93.83 59.00,100.03 59.00,105.04 C59.00,112.88 60.05,117.00 62.04,117.00 C62.57,117.00 63.01,115.99 63.03,114.75 C63.06,112.89 63.22,112.77 63.99,114.09 C64.50,114.97 65.14,119.24 65.41,123.59 C65.63,127.03 65.96,130.96 66.22,133.41 C66.29,134.07 66.36,134.61 66.41,135.00 C66.59,136.17 66.91,139.87 67.26,144.56 C66.90,142.00 66.30,140.00 65.86,140.00 C64.88,140.00 64.72,149.33 65.63,152.75 C65.96,153.99 66.63,155.00 67.12,155.00 C67.52,155.00 67.78,154.61 67.89,153.70 C67.91,153.97 67.92,154.23 67.94,154.50 C68.29,160.11 68.87,167.81 69.46,174.80 C69.13,172.09 68.84,170.50 68.60,170.27 C66.99,168.65 66.52,172.59 66.72,186.16 C66.85,194.60 67.09,214.69 67.26,230.80 C67.47,251.75 67.81,259.26 68.65,260.68 L 67.29 259.93 C65.24,258.79 63.18,258.57 59.50,259.07 C54.56,259.75 19.84,258.67 6.75,257.43 L 0.00 256.80 L 0.00 255.84 L 7.25 256.33 C11.24,256.60 16.52,257.25 19.00,257.78 ZM 171.01 325.75 C171.02,324.23 171.66,308.33 172.37,291.63 C172.74,282.76 173.14,273.70 173.46,266.50 C173.58,263.86 173.70,261.25 173.82,258.68 C173.64,263.22 173.49,267.54 173.37,271.17 L 172.70 291.83 L 190.97 291.59 C201.02,291.46 210.88,291.67 212.87,292.06 C214.87,292.44 216.95,292.66 217.50,292.55 C218.15,292.41 218.67,288.88 219.01,283.30 C218.73,289.32 218.38,293.02 218.02,293.38 C217.41,293.99 217.00,301.12 217.00,311.20 L 217.00 328.00 L 171.00 328.00 ZM 265.13 323.55 C261.52,316.73 256.77,311.72 246.70,304.12 C231.53,292.66 230.75,291.29 230.93,276.50 C231.01,270.45 231.44,261.45 231.89,256.50 C232.34,251.55 232.79,240.56 232.90,232.08 C233.00,223.60 233.29,216.35 233.52,215.96 C233.76,215.58 234.25,212.84 234.61,209.88 C235.23,204.67 235.96,201.66 237.58,200.61 C237.13,201.50 236.94,203.46 236.88,207.00 C236.81,210.85 236.61,215.24 236.43,216.75 C235.94,220.94 235.16,239.29 234.54,261.50 C234.23,272.50 233.91,282.17 233.83,283.00 C233.75,283.83 233.76,286.41 233.84,288.75 L 234.00 293.00 L 286.82 293.00 C288.28,305.90 289.91,322.51 289.96,325.75 C290.00,327.96 289.79,328.00 278.25,327.95 L 267.45 327.91 ZM 103.95 325.25 C103.92,323.74 103.48,317.55 102.97,311.50 C102.46,305.45 101.80,294.88 101.50,288.00 C101.20,281.12 100.51,269.20 99.96,261.50 C99.41,253.80 98.53,239.54 98.00,229.80 C97.93,228.52 97.85,227.24 97.77,225.97 C98.22,231.62 98.68,238.23 99.01,244.00 C100.79,274.95 101.87,288.98 102.54,290.06 C102.90,290.64 105.86,290.96 109.34,290.80 L 115.50 290.50 L 115.50 284.15 C115.50,280.67 115.21,274.57 114.85,270.62 C114.49,266.66 113.92,259.61 113.57,254.96 C112.45,239.87 106.97,211.17 103.85,204.00 C100.63,196.62 95.53,189.21 94.73,190.75 C94.71,190.79 94.69,190.85 94.67,190.94 L 94.67 190.93 L 94.67 190.93 C94.65,190.54 94.64,190.15 94.63,189.76 C94.60,189.00 94.57,188.23 94.54,187.45 C94.27,181.10 93.77,174.89 93.32,172.19 C93.24,171.64 93.16,171.17 93.09,170.79 C92.96,170.18 92.80,168.99 92.61,167.34 C92.44,165.75 92.25,163.75 92.05,161.46 C92.63,166.85 93.17,169.94 93.72,171.25 C94.59,173.31 95.59,175.00 95.93,175.00 C97.04,175.00 108.58,186.38 111.14,190.00 C115.78,196.56 120.13,206.16 121.49,212.84 C122.23,216.50 124.04,224.00 125.51,229.50 C127.98,238.75 128.22,241.43 128.70,265.20 L 129.13 286.60 C129.02,284.49 128.95,281.84 128.93,278.75 C128.83,260.20 126.21,239.92 123.21,234.36 C122.57,233.18 121.83,230.71 121.57,228.86 C119.28,212.56 116.85,205.51 111.06,198.32 C109.65,196.57 107.81,194.16 106.97,192.95 C105.68,191.12 105.25,190.99 104.27,192.17 C103.36,193.27 103.84,195.09 106.51,200.60 C109.94,207.69 113.10,219.92 112.29,222.99 C112.05,223.91 112.86,232.27 114.08,241.58 C115.90,255.47 116.34,264.14 116.52,290.00 C116.64,307.33 116.53,322.96 116.26,324.75 C115.79,327.89 115.77,328.00 110.43,328.00 C105.94,328.00 104.58,327.95 104.16,327.00 C103.99,326.60 103.96,326.04 103.95,325.25 ZM 308.26 312.25 C307.70,303.59 306.96,291.33 306.61,285.00 C306.49,282.94 306.34,280.86 306.17,278.93 C306.33,280.37 306.46,281.85 306.56,283.27 L 307.18 292.04 L 311.84 291.45 C319.07,290.52 323.06,290.51 328.75,291.38 L 333.97 292.18 L 334.00 328.00 L 309.26 328.00 ZM 132.86 291.22 C140.45,291.89 141.00,291.80 141.00,289.96 C141.00,288.97 141.46,288.01 142.03,287.82 C142.30,287.73 142.60,285.94 142.90,282.77 C142.70,286.95 142.49,291.21 142.30,295.50 C141.75,307.23 140.28,323.55 139.55,325.84 C139.38,326.39 139.19,326.80 138.87,327.11 C138.07,327.88 136.48,328.00 132.32,328.00 L 131.00 328.00 L 131.00 310.00 C131.00,298.67 130.63,292.00 130.00,292.00 C129.83,292.00 129.68,291.63 129.55,290.92 ZM 69.79 308.75 C69.73,302.97 69.71,295.89 69.72,289.39 C69.72,289.39 69.72,289.39 69.73,289.39 C70.06,289.73 72.10,290.00 74.26,290.00 L 78.00 290.00 C78.64,297.66 79.20,306.13 79.61,314.25 L 80.29 328.00 L 70.00 328.00 ZM 88.03 101.05 C88.04,100.77 88.07,100.60 88.10,100.57 C88.35,100.31 90.36,100.56 92.55,101.11 C96.21,102.04 101.94,105.91 117.71,118.12 C121.00,120.67 126.80,124.59 130.59,126.84 C134.39,129.09 137.95,131.29 138.51,131.72 C144.49,136.35 149.64,140.63 150.23,141.47 C150.43,141.74 150.58,142.40 150.70,143.39 C150.45,142.05 150.00,141.53 149.22,141.22 C147.01,140.33 143.98,138.17 134.21,130.50 C130.00,127.20 125.36,123.82 123.91,123.00 C122.45,122.18 119.74,120.64 117.88,119.60 C116.03,118.55 112.26,116.02 109.51,113.97 C104.83,110.49 100.96,108.12 91.75,103.08 ZM 249.97 328.00 L 241.46 328.00 C234.85,328.00 233.06,327.71 233.66,326.75 C234.49,325.44 234.60,324.91 234.85,321.25 C235.17,316.51 244.50,319.54 248.54,325.70 L 249.00 326.40 ZM 330.00 194.00 C328.73,192.90 327.28,192.00 326.78,192.00 C326.27,192.00 323.68,190.16 321.02,187.92 C318.35,185.67 314.80,183.08 313.12,182.17 C309.69,180.29 301.63,176.25 298.30,174.72 C296.91,174.08 296.11,173.32 295.36,169.45 C295.84,170.04 296.74,170.73 297.75,171.24 C304.42,174.59 319.12,183.92 326.00,189.17 C329.31,191.69 332.20,193.86 333.29,194.64 C333.25,195.53 333.20,196.00 333.15,196.00 C332.69,196.00 331.27,195.10 330.00,194.00 ZM 219.41 271.15 C219.47,265.87 219.43,260.00 219.26,254.00 C218.88,241.16 219.16,233.44 220.32,225.00 C221.19,218.68 222.16,208.51 222.49,202.40 L 223.00 192.95 L 223.00 208.37 C223.00,219.39 222.45,228.53 221.46,234.00 C220.47,239.50 219.77,251.30 219.49,267.43 C219.46,268.70 219.44,269.94 219.41,271.15 ZM 279.50 226.82 C278.87,225.81 277.87,225.08 276.20,224.29 C274.24,223.36 270.05,220.55 266.89,218.05 C263.74,215.55 259.88,212.72 258.33,211.77 C256.77,210.82 253.48,208.47 251.00,206.54 C247.06,203.48 242.51,200.95 239.75,200.22 C241.81,200.51 244.76,202.19 249.12,205.08 C255.04,209.01 268.71,216.83 270.72,217.44 C273.90,218.41 277.80,222.74 279.50,226.82 ZM 328.53 259.81 C326.87,258.76 325.42,258.00 325.00,258.00 C324.46,258.00 323.08,257.21 321.93,256.25 C320.77,255.29 318.63,253.49 317.17,252.25 C315.70,251.01 314.13,250.00 313.68,250.00 C313.23,250.00 310.87,248.63 308.43,246.95 L 304.00 243.90 L 304.00 255.59 C304.00,259.25 304.14,263.07 304.36,266.04 C304.32,265.67 304.28,265.29 304.24,264.90 L 304.24 264.89 C304.07,263.27 303.91,261.43 303.76,259.50 C303.68,258.35 303.60,257.17 303.54,256.00 C303.50,255.36 303.47,254.70 303.42,254.02 L 303.42 254.02 L 302.82 243.00 L 305.35 243.00 C307.01,243.00 310.68,245.38 316.18,250.04 C320.39,253.60 325.69,257.79 328.53,259.81 ZM 286.53 290.49 L 286.49 290.25 C285.13,282.08 283.77,268.21 283.37,258.50 C283.36,258.24 283.35,257.98 283.34,257.73 C283.36,258.17 283.38,258.59 283.40,259.00 C283.70,265.33 284.64,275.67 285.49,282.00 C285.79,284.28 286.15,287.21 286.53,290.49 ZM 76.69 276.25 C76.44,274.19 76.18,272.15 75.96,270.50 C75.43,266.65 74.78,258.33 74.50,252.00 C73.58,231.12 72.39,210.54 71.27,195.25 C72.36,209.21 73.48,228.76 74.50,252.00 C74.78,258.33 75.45,266.65 75.98,270.50 C76.21,272.19 76.45,274.13 76.69,276.25 ZM 291.05 128.01 C291.49,132.52 292.05,138.48 292.38,142.10 C291.85,136.76 291.42,132.14 291.05,128.01 ZM 293.74 156.10 C293.82,156.94 293.91,157.74 293.99,158.50 C294.24,160.75 294.46,162.93 294.63,164.69 C294.52,163.81 294.41,162.84 294.29,161.77 C294.10,159.82 293.91,157.91 293.74,156.10 ZM 333.96 276.68 L 333.92 263.50 L 332.64 262.61 L 333.95 263.50 ZM 95.23 200.50 C95.40,202.26 95.61,204.29 95.86,206.63 C95.65,205.21 95.43,203.05 95.23,200.50 ZM 176.66 185.56 C176.69,184.82 176.71,184.08 176.73,183.34 C176.86,179.81 177.00,176.81 177.14,174.26 C176.97,177.31 176.82,181.04 176.66,185.56 ZM 287.85 87.32 C288.04,89.24 288.23,91.14 288.42,93.00 C288.58,94.53 288.91,98.98 289.21,103.79 C288.91,99.05 288.58,94.57 288.42,93.00 C288.22,91.11 288.04,89.22 287.85,87.32 ZM 176.06 203.98 C176.19,200.35 176.31,196.71 176.43,192.98 C176.33,196.26 176.21,200.03 176.06,203.98 ZM 223.00 191.24 L 218.48 187.90 C217.86,187.45 217.17,186.93 216.43,186.36 C217.15,186.91 217.83,187.43 218.43,187.87 L 223.00 191.23 ZM 282.04 241.51 C281.98,240.97 281.91,240.44 281.84,239.90 C281.91,240.39 281.97,240.87 282.02,241.37 ZM 146.04 229.62 C146.06,229.41 146.08,229.20 146.09,229.00 C146.26,227.14 146.45,224.65 146.66,221.81 C146.45,224.65 146.26,227.14 146.09,229.00 C146.08,229.20 146.06,229.41 146.04,229.62 ZM 179.14 162.06 C179.22,162.02 179.30,162.00 179.38,162.00 L 179.39 162.00 C179.30,162.00 179.22,162.02 179.14,162.06 Z" fill="rgb(174,59,24)"></path>
<path d="M 212.87 292.06 C210.88,291.67 201.02,291.46 190.97,291.59 L 172.70 291.83 L 173.37 271.17 C173.74,259.80 174.46,241.73 174.97,231.00 C175.48,220.27 176.15,202.50 176.48,191.50 C177.15,168.50 177.80,162.00 179.40,162.00 C180.02,162.00 182.19,163.12 184.21,164.50 C186.24,165.88 188.56,167.00 189.36,167.00 C190.17,167.00 190.98,167.34 191.17,167.75 C191.35,168.17 194.64,170.53 198.47,173.00 C202.30,175.48 207.33,179.07 209.65,181.00 C211.97,182.93 215.94,186.03 218.48,187.90 L 223.09 191.30 L 222.49 202.40 C222.16,208.51 221.19,218.68 220.32,225.00 C219.16,233.44 218.88,241.16 219.26,254.00 C219.83,273.80 218.99,292.24 217.50,292.55 C216.95,292.66 214.87,292.44 212.87,292.06 ZM 233.84 288.75 C233.76,286.41 233.75,283.83 233.83,283.00 C233.91,282.17 234.23,272.50 234.54,261.50 C235.16,239.29 235.94,220.94 236.43,216.75 C236.61,215.24 236.81,210.85 236.88,207.00 C236.97,201.78 237.35,200.00 238.38,200.00 C240.73,200.00 246.30,202.89 251.00,206.54 C253.48,208.47 256.77,210.82 258.33,211.77 C259.88,212.72 263.74,215.55 266.89,218.05 C270.05,220.55 274.24,223.36 276.20,224.29 C278.96,225.60 279.90,226.73 280.31,229.24 C282.05,240.00 282.97,248.79 283.37,258.50 C283.77,268.21 285.13,282.08 286.49,290.25 L 286.95 293.00 L 260.48 293.00 L 234.00 293.00 L 233.84 288.75 ZM 132.86 291.22 L 129.22 290.89 L 128.70 265.20 C128.22,241.43 127.98,238.75 125.51,229.50 C124.04,224.00 122.23,216.50 121.49,212.84 C120.13,206.16 115.78,196.56 111.14,190.00 C108.58,186.38 97.04,175.00 95.93,175.00 C95.59,175.00 94.59,173.31 93.72,171.25 C92.60,168.60 91.53,158.58 90.06,137.00 C88.91,120.22 87.98,105.27 87.99,103.77 L 88.00 101.03 L 91.75 103.08 C100.96,108.12 104.83,110.49 109.51,113.97 C112.26,116.02 116.03,118.55 117.88,119.60 C119.74,120.64 122.45,122.18 123.91,123.00 C125.36,123.82 130.00,127.20 134.21,130.50 C143.98,138.17 147.01,140.33 149.22,141.22 C150.72,141.82 151.00,143.18 150.98,149.72 C150.97,154.00 150.51,162.68 149.94,169.00 C149.38,175.32 148.51,188.82 148.02,199.00 C147.53,209.18 146.66,222.68 146.09,229.00 C145.53,235.32 144.61,251.07 144.06,263.99 C143.45,278.27 142.65,287.62 142.03,287.82 C141.46,288.01 141.00,288.97 141.00,289.96 C141.00,291.80 140.45,291.89 132.86,291.22 ZM 306.56 283.27 C306.22,278.45 305.50,272.87 304.97,270.88 C304.44,268.90 304.00,262.01 304.00,255.59 L 304.00 243.90 L 308.43 246.95 C310.87,248.63 313.23,250.00 313.68,250.00 C314.13,250.00 315.70,251.01 317.17,252.25 C318.63,253.49 320.77,255.29 321.93,256.25 C323.08,257.21 324.46,258.00 325.00,258.00 C325.53,258.00 327.76,259.24 329.95,260.75 L 333.92 263.50 L 333.96 277.84 L 334.00 292.19 L 328.75 291.38 C323.06,290.51 319.07,290.52 311.84,291.45 L 307.18 292.04 L 306.56 283.27 ZM 102.54 290.06 C101.87,288.98 100.79,274.95 99.01,244.00 C98.42,233.82 97.44,221.00 96.83,215.50 C94.86,197.83 94.33,191.52 94.73,190.75 C95.53,189.21 100.63,196.62 103.85,204.00 C106.97,211.17 112.45,239.87 113.57,254.96 C113.92,259.61 114.49,266.66 114.85,270.62 C115.21,274.57 115.50,280.67 115.50,284.15 L 115.50 290.50 L 109.34 290.80 C105.86,290.96 102.90,290.64 102.54,290.06 ZM 69.73 289.39 C69.39,289.06 69.34,282.69 69.62,275.24 C70.00,264.87 69.82,261.51 68.84,260.90 C67.86,260.29 67.49,253.29 67.26,230.80 C67.09,214.69 66.85,194.60 66.72,186.16 C66.52,172.59 66.99,168.65 68.60,170.27 C69.84,171.51 72.71,211.17 74.50,252.00 C74.78,258.33 75.43,266.65 75.96,270.50 C76.48,274.35 77.19,280.31 77.55,283.75 L 78.20 290.00 L 74.26 290.00 C72.10,290.00 70.06,289.73 69.73,289.39 ZM 19.00 257.78 C16.52,257.25 11.24,256.60 7.25,256.33 L 0.00 255.84 L 0.00 148.92 C0.00,90.11 0.31,42.00 0.69,42.00 C1.07,42.00 3.88,43.93 6.94,46.29 C10.00,48.65 13.62,51.37 15.00,52.33 C16.38,53.29 20.50,56.20 24.16,58.79 C27.82,61.38 33.90,65.64 37.66,68.25 C41.42,70.86 46.23,74.47 48.34,76.26 L 52.18 79.53 L 53.06 91.51 C54.36,109.18 55.49,252.20 54.36,256.69 C53.79,258.98 53.67,259.00 38.64,258.87 C30.31,258.81 21.48,258.32 19.00,257.78 ZM 326.00 189.17 C319.12,183.92 304.42,174.59 297.75,171.24 C296.24,170.48 294.99,169.32 294.98,168.68 C294.97,168.03 294.53,163.45 293.99,158.50 C293.46,153.55 292.77,146.57 292.46,143.00 C292.14,139.43 291.49,132.45 290.99,127.50 C290.50,122.55 289.80,113.55 289.44,107.50 C289.08,101.45 288.62,94.93 288.42,93.00 C287.02,79.50 285.79,64.16 285.00,50.00 C284.49,40.92 283.64,29.23 283.11,24.00 C282.59,18.77 281.89,11.24 281.57,7.25 L 280.99 0.00 L 307.49 0.00 L 334.00 0.00 L 334.00 97.50 C334.00,151.12 333.89,194.97 333.75,194.94 C333.61,194.91 330.12,192.31 326.00,189.17 ZM 65.63 152.75 C64.72,149.33 64.88,140.00 65.86,140.00 C66.33,140.00 67.01,142.36 67.35,145.25 C68.22,152.45 68.16,155.00 67.12,155.00 C66.63,155.00 65.96,153.99 65.63,152.75 ZM 270.50 154.28 C269.40,154.01 266.93,152.60 265.00,151.15 C256.88,145.00 229.74,127.00 228.58,127.00 C228.27,127.00 222.72,123.26 216.25,118.69 C209.79,114.12 202.70,109.31 200.50,108.01 C198.30,106.71 194.60,103.92 192.27,101.82 C189.95,99.72 187.47,97.98 186.77,97.96 C186.07,97.94 184.19,96.86 182.59,95.55 L 179.68 93.17 L 180.35 59.83 C180.72,41.50 181.31,20.54 181.66,13.25 L 182.30 -0.00 L 221.65 -0.00 L 261.00 0.00 L 261.02 7.25 C261.03,11.24 261.49,17.59 262.03,21.36 C262.93,27.60 264.23,44.87 265.58,68.50 C265.86,73.45 266.79,81.10 267.64,85.50 C269.98,97.64 274.34,155.32 272.89,154.88 C272.68,154.82 271.60,154.55 270.50,154.28 ZM 150.00 73.91 C148.07,71.78 145.81,70.03 144.98,70.02 C143.65,70.00 137.50,66.69 124.00,58.73 C122.07,57.60 116.90,54.67 112.50,52.23 C108.10,49.79 103.57,46.94 102.44,45.90 C101.30,44.85 99.84,44.00 99.19,44.00 C98.53,44.00 98.00,43.62 98.00,43.16 C98.00,42.70 95.64,41.16 92.75,39.74 C89.86,38.33 86.23,35.83 84.67,34.19 C81.87,31.26 81.83,31.04 81.27,15.61 L 80.70 -0.00 L 120.47 -0.00 L 160.24 0.00 L 159.50 12.75 C159.09,19.76 158.39,32.25 157.94,40.50 C157.00,57.87 154.92,78.05 154.08,77.89 C153.76,77.83 151.93,76.04 150.00,73.91 ZM 47.50 11.31 C44.20,8.73 39.92,5.13 38.00,3.32 L 34.50 0.02 L 45.25 0.01 L 56.00 0.00 L 56.00 8.00 C56.00,13.73 55.65,16.00 54.75,16.00 C54.06,16.00 50.80,13.89 47.50,11.31 Z" fill="rgb(251,201,5)"></path>
</g>
</svg></svg></g></g><defs><clipPath id="SvgjsClipPath1061"><rect width="1000" height="1000" x="0" y="0" rx="500" ry="500"></rect></clipPath></defs></svg>